<?xml version="1.0" encoding="UTF-8"?>
<svg id="Layer_1" data-name="Layer 1" xmlns="http://www.w3.org/2000/svg" viewBox="0 0 1378.021 1376.032">
  <path d="M863.145,1376.032h-.794c-21.465,0-40.074-14.483-45.767-35.179-15.406-56.009-66.7-97.152-127.605-97.152s-112.199,41.143-127.605,97.152c-5.693,20.696-24.302,35.179-45.767,35.179h-.794c-31.175,0-54.087-29.558-45.951-59.652,26.221-96.99,114.835-168.348,220.117-168.348s193.896,71.358,220.117,168.348c8.136,30.094-14.776,59.652-45.951,59.652Z"/>
  <path d="M514.812,0h.794c21.465,0,40.074,14.483,45.767,35.179,15.406,56.009,66.7,97.152,127.605,97.152s112.199-41.143,127.605-97.152c5.693-20.696,24.302-35.179,45.767-35.179h.794c31.175,0,54.087,29.558,45.951,59.652-26.221,96.99-114.835,168.348-220.117,168.348s-193.896-71.358-220.117-168.348c-8.136-30.094,14.776-59.652,45.951-59.652Z"/>
  <path d="M514.812,745.532h.794c21.465,0,40.074,14.483,45.767,35.179,15.406,56.009,66.7,97.152,127.605,97.152s112.199-41.143,127.605-97.152c5.693-20.696,24.302-35.179,45.767-35.179h.794c31.175,0,54.087,29.558,45.951,59.652-26.221,96.99-114.835,168.348-220.117,168.348s-193.896-71.358-220.117-168.348c-8.136-30.094,14.776-59.652,45.951-59.652Z"/>
  <path d="M307.686,1314.59l-.562-.562c-15.178-15.178-18.096-38.578-7.487-57.238,28.711-50.498,21.533-115.861-21.533-158.927s-108.429-50.244-158.927-21.533c-18.66,10.609-42.06,7.691-57.238-7.487l-.562-.562c-22.044-22.044-17.344-59.146,9.688-74.673,87.123-50.041,200.241-37.839,274.686,36.607,74.445,74.445,86.648,187.563,36.607,274.686-15.527,27.033-52.629,31.732-74.673,9.688Z"/>
  <path d="M1316.579,1068.282l-.562.562c-15.178,15.178-38.578,18.096-57.238,7.487-50.498-28.711-115.861-21.533-158.927,21.533-43.066,43.066-50.244,108.429-21.533,158.927,10.609,18.66,7.691,42.06-7.487,57.238l-.562.562c-22.044,22.044-59.146,17.344-74.673-9.688-50.041-87.123-37.839-200.241,36.607-274.686,74.445-74.445,187.563-86.648,274.686-36.607,27.033,15.527,31.732,52.629,9.688,74.673Z"/>
  <path d="M0,861.166v-.794c0-21.465,14.483-40.074,35.179-45.767,56.009-15.406,97.152-66.7,97.152-127.605s-41.143-112.199-97.152-127.605c-20.696-5.693-35.179-24.302-35.179-45.767v-.794c0-31.175,29.558-54.087,59.652-45.951,96.99,26.221,168.348,114.835,168.348,220.117s-71.358,193.896-168.348,220.117c-30.094,8.136-59.652-14.776-59.652-45.951Z"/>
  <path d="M61.442,305.708l.562-.562c15.178-15.178,38.578-18.096,57.238-7.487,50.498,28.711,115.861,21.533,158.927-21.533s50.244-108.429,21.533-158.927c-10.609-18.66-7.691-42.06,7.487-57.238l.562-.562c22.044-22.044,59.146-17.344,74.673,9.688,50.041,87.123,37.839,200.241-36.607,274.686s-187.563,86.648-274.686,36.607c-27.033-15.527-31.732-52.629-9.688-74.673Z"/>
  <path d="M1378.021,512.823v.794c0,21.465-14.483,40.074-35.179,45.767-56.009,15.406-97.152,66.7-97.152,127.605s41.143,112.199,97.152,127.605c20.696,5.693,35.179,24.302,35.179,45.767v.794c0,31.175-29.558,54.087-59.652,45.951-96.99-26.221-168.348-114.835-168.348-220.117s71.358-193.896,168.348-220.117c30.094-8.136,59.652,14.776,59.652,45.951Z"/>
  <path d="M1316.579,1068.282l-.562.562c-15.178,15.178-38.578,18.096-57.238,7.487-50.498-28.711-115.861-21.533-158.927,21.533-43.066,43.066-50.244,108.429-21.533,158.927,10.609,18.66,7.691,42.06-7.487,57.238l-.562.562c-22.044,22.044-59.146,17.344-74.673-9.688-50.041-87.123-37.839-200.241,36.607-274.686,74.445-74.445,187.563-86.648,274.686-36.607,27.033,15.527,31.732,52.629,9.688,74.673Z"/>
  <path d="M1070.271,59.389l.562.562c15.178,15.178,18.096,38.578,7.487,57.238-28.711,50.498-21.533,115.861,21.533,158.927,43.066,43.066,108.429,50.244,158.927,21.533,18.66-10.609,42.06-7.691,57.238,7.487l.562.562c22.044,22.044,17.344,59.146-9.688,74.673-87.123,50.041-200.241,37.839-274.686-36.607-74.445-74.445-86.648-187.563-36.607-274.686,15.527-27.033,52.629-31.732,74.673-9.688Z"/>
  <rect x="467.207" y="445.979" width="91.66" height="241.021" rx="45.83" ry="45.83"/>
  <rect x="819.091" y="445.979" width="91.66" height="241.021" rx="45.83" ry="45.83"/>
</svg>